<?xml version="1.0" encoding="UTF-8"?>
<svg xmlns="http://www.w3.org/2000/svg" xmlns:xlink="http://www.w3.org/1999/xlink" width="64pt" height="64pt" viewBox="0 0 64 64" version="1.1">
<g id="surface1">
<path style=" stroke:none;fill-rule:nonzero;fill:rgb(57.647059%,24.313725%,77.254902%);fill-opacity:1;" d="M 61.074219 41.75 C 60.292969 41.75 59.558594 42.054688 59.003906 42.605469 L 53.8125 47.796875 C 53.5625 48.046875 53.230469 48.183594 52.875 48.183594 C 52.519531 48.183594 52.1875 48.046875 51.9375 47.796875 L 41.425781 37.285156 C 40.878906 36.738281 40.8125 35.734375 41.28125 35.003906 C 43.257812 31.90625 44.335938 28.367188 44.398438 24.773438 C 44.484375 19.761719 41.644531 13.71875 36.800781 8.601562 C 31.957031 3.488281 26.046875 0.28125 20.980469 0.0234375 L 20.546875 0 L 20.496094 0 C 20.261719 0 19.640625 0 17.726562 1.910156 L 1.910156 17.726562 C -0.0429688 19.683594 -0.0117188 20.292969 0.00390625 20.554688 L 0.0273438 20.980469 C 0.277344 26.003906 3.445312 31.886719 8.5 36.707031 C 13.546875 41.523438 19.542969 44.402344 24.539062 44.402344 C 24.617188 44.402344 24.691406 44.398438 24.769531 44.398438 C 28.367188 44.335938 31.90625 43.257812 35.003906 41.28125 C 35.316406 41.082031 35.703125 40.972656 36.089844 40.972656 C 36.566406 40.972656 36.992188 41.132812 37.289062 41.429688 L 47.800781 51.9375 C 48.050781 52.191406 48.1875 52.523438 48.1875 52.875 C 48.1875 53.230469 48.050781 53.5625 47.800781 53.8125 L 42.609375 59.003906 C 42.054688 59.554688 41.75 60.292969 41.75 61.074219 C 41.75 61.855469 42.054688 62.589844 42.609375 63.144531 C 43.164062 63.695312 43.898438 64 44.679688 64 C 45.457031 64 46.195312 63.695312 46.746094 63.144531 L 53.578125 56.3125 L 54.199219 55.6875 L 63.144531 46.746094 C 64.285156 45.605469 64.285156 43.75 63.144531 42.605469 C 62.589844 42.054688 61.851562 41.75 61.074219 41.75 Z M 38.542969 24.675781 C 38.484375 28.167969 36.941406 31.683594 34.308594 34.3125 C 31.679688 36.941406 28.164062 38.484375 24.671875 38.546875 C 24.625 38.546875 24.574219 38.546875 24.53125 38.546875 C 21.425781 38.546875 17.554688 36.792969 13.917969 33.738281 C 10.359375 30.75 7.558594 26.921875 6.429688 23.5 C 6.171875 22.722656 6.597656 21.320312 7.300781 20.617188 L 20.621094 7.296875 C 21.160156 6.757812 22.167969 6.351562 22.964844 6.351562 C 23.167969 6.351562 23.347656 6.375 23.503906 6.425781 C 30.921875 8.878906 38.65625 18.257812 38.542969 24.675781 Z M 38.542969 24.675781 "/>
<path style=" stroke:none;fill-rule:nonzero;fill:rgb(57.647059%,24.313725%,77.254902%);fill-opacity:1;" d="M 24.886719 36.910156 C 31.023438 36.804688 37.003906 30.824219 37.109375 24.6875 L 9.191406 24.546875 C 10.726562 31.261719 18.695312 37.015625 24.886719 36.910156 Z M 24.886719 36.910156 "/>
</g>
</svg>
