<?xml version="1.0" encoding="iso-8859-1"?>
<!-- Generator: Adobe Illustrator 16.0.0, SVG Export Plug-In . SVG Version: 6.00 Build 0)  -->
<!DOCTYPE svg PUBLIC "-//W3C//DTD SVG 1.1//EN" "http://www.w3.org/Graphics/SVG/1.1/DTD/svg11.dtd">
<svg xmlns="http://www.w3.org/2000/svg" xmlns:xlink="http://www.w3.org/1999/xlink" version="1.1" id="Capa_1" x="0px" y="0px" width="512px" height="512px" viewBox="0 0 590.754 590.754" style="enable-background:new 0 0 590.754 590.754;" xml:space="preserve">
<g>
	<g>
		<path d="M563.732,385.373c-7.206,0-13.99,2.807-19.101,7.904l-47.91,47.91c-2.311,2.311-5.386,3.583-8.654,3.583    c-3.268,0-6.343-1.275-8.656-3.586l-97.021-97.021c-5.062-5.062-5.651-14.312-1.347-21.059    c18.253-28.596,28.201-61.255,28.771-94.447c0.792-46.236-25.426-102.036-70.139-149.267    c-44.678-47.194-99.266-76.797-146.02-79.19l-3.984-0.192L189.452,0h-0.272c-2.161,0-7.895,0-25.539,17.644L17.645,163.64    c-18.039,18.036-17.739,23.669-17.613,26.074l0.208,3.954c2.338,46.374,31.576,100.646,78.211,145.154    c46.598,44.475,101.953,71.022,148.073,71.022c0.707,0,1.401-0.006,2.105-0.018c33.198-0.585,65.869-10.536,94.486-28.786    c2.877-1.833,6.426-2.843,9.997-2.843c4.431,0,8.363,1.493,11.074,4.205l97.023,97.023c2.313,2.312,3.586,5.385,3.586,8.656    s-1.272,6.344-3.583,8.653l-47.901,47.904c-5.11,5.096-7.929,11.883-7.929,19.101c0,7.219,2.818,14.006,7.935,19.11    c5.096,5.095,11.876,7.903,19.086,7.903c7.206,0,13.987-2.806,19.101-7.903l63.057-63.058l5.741-5.756l82.546-82.547    c10.533-10.532,10.533-27.668,0-38.201C577.723,388.18,570.938,385.373,563.732,385.373z M355.787,227.756    c-0.542,32.261-14.789,64.694-39.089,88.976c-24.29,24.271-56.719,38.513-88.978,39.07c-0.428,0.006-0.869,0.009-1.3,0.009    c-28.66,0-64.367-16.179-97.966-44.382c-32.843-27.574-58.679-62.908-69.104-94.518c-2.369-7.179,1.533-20.107,8.026-26.601    L190.349,67.338c4.972-4.973,14.266-8.724,21.616-8.724c1.888,0,3.562,0.239,4.979,0.704    C285.432,81.95,356.8,168.529,355.787,227.756z" fill="#933EC5"/>
		<path d="M229.712,340.694c56.65-0.955,111.855-56.157,112.822-112.81l-257.701-1.307    C99.004,288.555,172.567,341.683,229.712,340.694z" fill="#933EC5"/>
	</g>
</g>
<g>
</g>
<g>
</g>
<g>
</g>
<g>
</g>
<g>
</g>
<g>
</g>
<g>
</g>
<g>
</g>
<g>
</g>
<g>
</g>
<g>
</g>
<g>
</g>
<g>
</g>
<g>
</g>
<g>
</g>
</svg>
